<svg width="300" height="300" viewBox="0 0 300 300" fill="none" xmlns="http://www.w3.org/2000/svg">
<path d="M186.827 151H184.497L189.732 136.455H192.267L197.501 151H195.172L191.06 139.097H190.946L186.827 151ZM187.217 145.304H194.774V147.151H187.217V145.304ZM202.539 151.213C201.659 151.213 200.873 150.988 200.182 150.538C199.495 150.084 198.955 149.437 198.562 148.599C198.174 147.757 197.98 146.746 197.98 145.567C197.98 144.388 198.176 143.379 198.569 142.541C198.967 141.703 199.512 141.062 200.203 140.616C200.894 140.171 201.678 139.949 202.554 139.949C203.231 139.949 203.775 140.062 204.187 140.29C204.604 140.512 204.926 140.773 205.153 141.071C205.385 141.369 205.565 141.632 205.693 141.859H205.821V136.455H207.944V151H205.87V149.303H205.693C205.565 149.535 205.38 149.8 205.139 150.098C204.902 150.396 204.575 150.657 204.159 150.879C203.742 151.102 203.202 151.213 202.539 151.213ZM203.008 149.402C203.619 149.402 204.135 149.241 204.557 148.919C204.983 148.592 205.305 148.14 205.522 147.562C205.745 146.985 205.856 146.312 205.856 145.545C205.856 144.788 205.747 144.125 205.53 143.557C205.312 142.989 204.992 142.546 204.571 142.229C204.149 141.911 203.629 141.753 203.008 141.753C202.369 141.753 201.836 141.919 201.41 142.25C200.984 142.581 200.662 143.034 200.444 143.607C200.231 144.179 200.125 144.826 200.125 145.545C200.125 146.275 200.234 146.93 200.451 147.513C200.669 148.095 200.991 148.557 201.417 148.898C201.848 149.234 202.379 149.402 203.008 149.402ZM214.259 151.213C213.378 151.213 212.592 150.988 211.901 150.538C211.215 150.084 210.675 149.437 210.282 148.599C209.893 147.757 209.699 146.746 209.699 145.567C209.699 144.388 209.896 143.379 210.289 142.541C210.687 141.703 211.231 141.062 211.922 140.616C212.614 140.171 213.397 139.949 214.273 139.949C214.95 139.949 215.495 140.062 215.907 140.29C216.323 140.512 216.645 140.773 216.873 141.071C217.105 141.369 217.285 141.632 217.412 141.859H217.54V136.455H219.664V151H217.59V149.303H217.412C217.285 149.535 217.1 149.8 216.858 150.098C216.622 150.396 216.295 150.657 215.878 150.879C215.462 151.102 214.922 151.213 214.259 151.213ZM214.728 149.402C215.339 149.402 215.855 149.241 216.276 148.919C216.702 148.592 217.024 148.14 217.242 147.562C217.465 146.985 217.576 146.312 217.576 145.545C217.576 144.788 217.467 144.125 217.249 143.557C217.031 142.989 216.712 142.546 216.29 142.229C215.869 141.911 215.348 141.753 214.728 141.753C214.089 141.753 213.556 141.919 213.13 142.25C212.704 142.581 212.382 143.034 212.164 143.607C211.951 144.179 211.844 144.826 211.844 145.545C211.844 146.275 211.953 146.93 212.171 147.513C212.389 148.095 212.711 148.557 213.137 148.898C213.568 149.234 214.098 149.402 214.728 149.402ZM226.388 151V140.091H228.511V151H226.388ZM227.46 138.408C227.091 138.408 226.774 138.285 226.508 138.038C226.248 137.787 226.118 137.489 226.118 137.143C226.118 136.793 226.248 136.495 226.508 136.249C226.774 135.998 227.091 135.872 227.46 135.872C227.829 135.872 228.144 135.998 228.405 136.249C228.67 136.495 228.802 136.793 228.802 137.143C228.802 137.489 228.67 137.787 228.405 138.038C228.144 138.285 227.829 138.408 227.46 138.408ZM230.568 151V140.091H232.607V141.866H232.741C232.969 141.265 233.34 140.796 233.857 140.46C234.373 140.119 234.991 139.949 235.71 139.949C236.439 139.949 237.05 140.119 237.543 140.46C238.04 140.801 238.407 141.27 238.643 141.866H238.757C239.018 141.284 239.432 140.82 240 140.474C240.568 140.124 241.245 139.949 242.031 139.949C243.021 139.949 243.828 140.259 244.453 140.879C245.083 141.5 245.398 142.435 245.398 143.685V151H243.274V143.884C243.274 143.145 243.073 142.61 242.67 142.278C242.268 141.947 241.787 141.781 241.229 141.781C240.537 141.781 240 141.994 239.616 142.42C239.233 142.842 239.041 143.384 239.041 144.047V151H236.925V143.749C236.925 143.157 236.74 142.681 236.371 142.321C236.001 141.961 235.521 141.781 234.929 141.781C234.527 141.781 234.155 141.888 233.814 142.101C233.478 142.309 233.205 142.6 232.997 142.974C232.794 143.348 232.692 143.782 232.692 144.274V151H230.568ZM250.619 151.241C249.927 151.241 249.302 151.114 248.744 150.858C248.185 150.598 247.742 150.221 247.416 149.729C247.094 149.236 246.933 148.633 246.933 147.918C246.933 147.302 247.051 146.795 247.288 146.398C247.524 146 247.844 145.685 248.247 145.453C248.649 145.221 249.099 145.046 249.596 144.928C250.093 144.809 250.6 144.719 251.116 144.658C251.769 144.582 252.3 144.52 252.707 144.473C253.114 144.421 253.41 144.338 253.595 144.224C253.779 144.111 253.872 143.926 253.872 143.67V143.621C253.872 143 253.696 142.52 253.346 142.179C253 141.838 252.484 141.668 251.798 141.668C251.083 141.668 250.519 141.826 250.107 142.143C249.7 142.456 249.418 142.804 249.262 143.188L247.266 142.733C247.503 142.07 247.849 141.535 248.303 141.128C248.763 140.716 249.291 140.418 249.887 140.233C250.484 140.044 251.111 139.949 251.769 139.949C252.205 139.949 252.667 140.001 253.154 140.105C253.647 140.205 254.106 140.389 254.532 140.659C254.963 140.929 255.316 141.315 255.59 141.817C255.865 142.314 256.002 142.96 256.002 143.756V151H253.928V149.509H253.843C253.706 149.783 253.5 150.053 253.225 150.318C252.951 150.583 252.598 150.804 252.167 150.979C251.736 151.154 251.22 151.241 250.619 151.241ZM251.08 149.537C251.667 149.537 252.169 149.421 252.586 149.189C253.007 148.957 253.327 148.654 253.545 148.28C253.767 147.901 253.879 147.496 253.879 147.065V145.659C253.803 145.735 253.656 145.806 253.438 145.872C253.225 145.934 252.981 145.988 252.707 146.036C252.432 146.078 252.165 146.118 251.904 146.156C251.644 146.189 251.426 146.218 251.251 146.241C250.839 146.294 250.462 146.381 250.122 146.504C249.785 146.627 249.515 146.805 249.312 147.037C249.113 147.264 249.014 147.567 249.014 147.946C249.014 148.472 249.208 148.869 249.596 149.139C249.984 149.404 250.479 149.537 251.08 149.537ZM262.605 155.318C261.738 155.318 260.992 155.205 260.367 154.977C259.747 154.75 259.24 154.449 258.847 154.075C258.454 153.701 258.161 153.292 257.967 152.847L259.792 152.094C259.92 152.302 260.09 152.522 260.303 152.754C260.521 152.991 260.815 153.192 261.184 153.358C261.558 153.524 262.039 153.607 262.626 153.607C263.431 153.607 264.096 153.41 264.622 153.017C265.147 152.629 265.41 152.009 265.41 151.156V149.011H265.275C265.147 149.243 264.963 149.501 264.721 149.786C264.484 150.07 264.158 150.316 263.741 150.524C263.324 150.732 262.782 150.837 262.114 150.837C261.253 150.837 260.476 150.635 259.785 150.233C259.098 149.826 258.554 149.227 258.151 148.436C257.754 147.641 257.555 146.663 257.555 145.503C257.555 144.343 257.751 143.348 258.144 142.52C258.542 141.691 259.087 141.057 259.778 140.616C260.469 140.171 261.253 139.949 262.129 139.949C262.806 139.949 263.353 140.062 263.769 140.29C264.186 140.512 264.51 140.773 264.742 141.071C264.979 141.369 265.161 141.632 265.289 141.859H265.445V140.091H267.526V151.241C267.526 152.179 267.309 152.948 266.873 153.55C266.437 154.151 265.848 154.596 265.105 154.885C264.366 155.174 263.533 155.318 262.605 155.318ZM262.583 149.075C263.194 149.075 263.71 148.933 264.132 148.649C264.558 148.36 264.88 147.948 265.097 147.413C265.32 146.874 265.431 146.227 265.431 145.474C265.431 144.741 265.322 144.094 265.105 143.536C264.887 142.977 264.567 142.541 264.146 142.229C263.724 141.911 263.204 141.753 262.583 141.753C261.944 141.753 261.411 141.919 260.985 142.25C260.559 142.577 260.237 143.022 260.019 143.585C259.806 144.149 259.7 144.778 259.7 145.474C259.7 146.189 259.809 146.817 260.026 147.357C260.244 147.896 260.566 148.318 260.992 148.621C261.423 148.924 261.954 149.075 262.583 149.075ZM274.276 151.22C273.201 151.22 272.276 150.991 271.499 150.531C270.727 150.067 270.131 149.416 269.709 148.578C269.293 147.735 269.084 146.748 269.084 145.616C269.084 144.499 269.293 143.514 269.709 142.662C270.131 141.81 270.718 141.144 271.471 140.666C272.228 140.188 273.114 139.949 274.127 139.949C274.743 139.949 275.339 140.051 275.917 140.254C276.494 140.458 277.013 140.777 277.472 141.213C277.931 141.649 278.294 142.214 278.559 142.911C278.824 143.602 278.957 144.442 278.957 145.432V146.185H270.285V144.594H276.876C276.876 144.035 276.762 143.54 276.535 143.109C276.307 142.674 275.988 142.33 275.576 142.08C275.169 141.829 274.69 141.703 274.141 141.703C273.545 141.703 273.024 141.85 272.579 142.143C272.138 142.432 271.797 142.811 271.556 143.28C271.319 143.744 271.201 144.248 271.201 144.793V146.036C271.201 146.765 271.329 147.385 271.584 147.896C271.845 148.408 272.207 148.798 272.671 149.068C273.135 149.333 273.677 149.466 274.297 149.466C274.7 149.466 275.067 149.409 275.398 149.295C275.73 149.177 276.016 149.002 276.258 148.77C276.499 148.538 276.684 148.251 276.812 147.911L278.822 148.273C278.661 148.865 278.372 149.383 277.955 149.828C277.543 150.268 277.025 150.612 276.4 150.858C275.779 151.099 275.072 151.22 274.276 151.22Z" fill="#103609"/>
<rect x="0.5" y="0.5" width="300" height="300" rx="1.5" stroke="#103609" stroke-dasharray="6 6"/>
</svg>
